<?xml version="1.0" encoding="utf-8"?>
<!-- Generator: Adobe Illustrator 27.8.0, SVG Export Plug-In . SVG Version: 6.00 Build 0)  -->
<svg version="1.1" id="Layer_1" xmlns="http://www.w3.org/2000/svg" xmlns:xlink="http://www.w3.org/1999/xlink" x="0px" y="0px"
	 viewBox="0 0 1920 1080" style="enable-background:new 0 0 1920 1080;" xml:space="preserve">
<style type="text/css">
	.st0{fill:#FFFFFF;}
</style>
<g>
	<path class="st0" d="M638.2,495.6l-3.5,1.3c-16.3-34.1-33.6-44.6-51.1-44.6c-17,0-27.1,10-27.1,26.1c0,23.1,21.3,33.1,43.6,44.1
		c24.6,12,50.4,25.3,50.4,59.7c0,37.6-30.1,53.4-65.7,53.4c-16.8,0-35.1-3.5-51.6-9.8l-5-47.9l3.5-1.3
		c18.5,35.6,37.8,51.1,61.2,51.1c22.8,0,33.3-15.3,33.3-32.6c0-23.8-19-35.1-39.9-45.4c-25.3-12.8-51.9-25.1-51.9-57.4
		c0-34.6,27.8-47.9,57.9-47.9c14.8,0,29.1,3,40.9,7.3L638.2,495.6z"/>
	<path class="st0" d="M666.4,631.2c8.3-15.5,10-24.1,10-44.9v-92.7c0-20.8-1.8-29.3-10-44.9v-0.5h48.9v0.5
		c-8.3,15.5-10,24.1-10,44.9v92.7c0,20.8,1.8,29.3,10,44.9v0.5h-48.9V631.2z"/>
	<path class="st0" d="M827,635.5c-59.4,0-97.5-41.9-97.5-95.5c0-53.4,38.6-95.5,101.8-95.5c28.8,0,50.4,7.5,64.2,12l5.3,42.1
		l-3.5,1.3c-23.6-33.8-41.9-47.6-68.2-47.6c-45.9,0-67.2,38.6-67.2,88c0,49.1,18.8,87.5,65.2,87.5c27.3,0,46.1-12.5,46.1-37.1
		c0-18-2.5-26.8-11.5-41.6v-0.5h49.1v0.5c-8.3,15.5-10,24.1-10,44.9v15C888.9,617.2,867.3,635.5,827,635.5z"/>
	<path class="st0" d="M944.8,476.3l1,105.5c0,22.6,3.3,31.8,17.3,49.4v0.5h-41.4v-0.5c12.5-17.5,15.3-26.8,15.3-49.4v-98.3
		c-1-16.3-5.5-23.8-19.6-34.8v-0.5h41.6l103.5,139.1l-0.8-89.2c-0.3-22.6-3.3-31.8-15.3-49.4v-0.5h38.8v0.5
		c-12,17.5-15.3,26.8-15.3,49.4v133.6l-10.3,0.8L944.8,476.3z"/>
	<path class="st0" d="M1085.4,631.7v-0.5c12-12.5,16.5-23.8,23.8-43.1l53.4-141.9h8l54.1,144.6c8,21.8,14,31.3,22.8,40.4v0.5h-50.1
		v-0.5c4.3-7.3,4-23.1-2.8-41.6l-9.8-25.8h-58.6l-4.8,12.8c-11,29.6-4.8,46.4,0.5,54.6v0.5H1085.4z M1182.1,556l-26.3-70.4
		l-26.6,70.4H1182.1z"/>
	<path class="st0" d="M1297.6,625.7l39.4-1.8c20.3-0.8,37.8-23.6,51.6-44.6l3.3,1.3l-11.3,51.1h-121.8v-0.5c8-15.5,10-24.3,10-44.9
		v-92.7c0-20.8-2-29.3-10-44.9v-0.5h48.9v0.5c-8.3,15.5-10,24.1-10,44.9V625.7z"/>
</g>
</svg>
